<svg xmlns="http://www.w3.org/2000/svg" height="16" width="16"><path d="M3.383 3.257h5.211v4.674H3.383z" fill="#fea"/><path fill="#a5efac" d="M5.906 3.811v1.197h2.393V3.811zm4.787 0L8.898 5.607h1.196v4.786H8.898l1.795 1.796 1.795-1.796H11.29V5.607h1.197zM5.906 6.205v1.197h2.393V6.205zM3.512 8.598v1.197H8.3V8.598zm0 2.394v1.197h2.394v-1.197zm3.59 0v1.197H8.3v-1.197z"/><path fill="#a5efac" d="M3 1a2 2 0 0 0-2 2v10a2 2 0 0 0 2 2h10a2 2 0 0 0 2-2V3a2 2 0 0 0-2-2zm0 2h10v10H3zm1 .811v3.59h1v-3.59z"/></svg>