<svg xmlns="http://www.w3.org/2000/svg" height="16" width="16"><path d="M6.723 5.81q0 .109.03.173.03.065.08.101.052.034.121.045.07.011.146.011h.105v.193H5.778V6.14h.105q.076 0 .143-.009.07-.01.121-.042.052-.032.081-.092.031-.063.031-.164V3.285H5.82q-.1 0-.17.032-.067.029-.112.08-.043.052-.065.121-.02.068-.03.144l-.024.197h-.238l.023-.802h2.584l.022.802h-.237l-.023-.197q-.009-.076-.031-.144-.023-.07-.065-.12-.043-.052-.112-.081-.07-.032-.173-.032h-.446z" style="line-height:1.25;-inkscape-font-specification:'Noto Serif'" font-weight="400" font-size="16" font-family="Noto Serif" letter-spacing="0" word-spacing="0" fill="#e0e0e0"/><path d="M9.032 4.074q-.256 0-.395.209-.137.206-.161.605H9.53q0-.182-.026-.332-.027-.15-.086-.258-.058-.107-.154-.166-.094-.058-.233-.058zm.056 2.304q-.25 0-.449-.083-.197-.085-.333-.247-.137-.16-.211-.394-.072-.235-.072-.533 0-.644.265-.968.264-.325.753-.325.221 0 .399.069.177.07.3.208.123.137.188.343.067.204.067.475v.211H8.467q.004.251.05.433.046.179.131.295.088.117.213.173.126.054.29.054.118 0 .219-.027.103-.027.186-.072t.146-.1q.065-.059.105-.122.031.014.058.056.03.043.03.101 0 .07-.05.15-.05.079-.15.146-.1.067-.253.112-.15.045-.354.045z" style="line-height:1.25;-inkscape-font-specification:'Noto Serif'" font-weight="400" font-size="16" font-family="Noto Serif" letter-spacing="0" word-spacing="0" fill="#ff8080"/><path d="M11.988 4.2q0-.083-.072-.108-.07-.027-.175-.027h-.013v-.193h1.004v.193h-.04q-.068 0-.124.011-.054.012-.107.043-.052.031-.108.09-.056.058-.126.15l-.472.63.674.907q.101.135.19.19.093.054.178.054h.06v.193h-1.185V6.14h.022q.276 0 .276-.152 0-.025-.007-.05-.007-.026-.027-.06-.02-.036-.054-.085-.033-.05-.087-.121l-.307-.412-.32.448q-.02.027-.043.063-.023.035-.04.074-.018.038-.03.078-.01.038-.01.074 0 .078.064.112.065.031.22.031h.013v.193H10.25V6.14h.042q.083 0 .146-.013.063-.014.119-.047.056-.034.112-.09.056-.058.123-.143l.578-.749-.578-.789q-.1-.118-.197-.181-.094-.063-.198-.063h-.06v-.193h1.165v.193h-.013q-.079 0-.13.011-.052.01-.08.03-.03.017-.041.042-.011.025-.011.052 0 .047.027.094.029.045.08.116l.303.413.237-.343q.052-.079.083-.148.032-.07.032-.132z" style="line-height:1.25;-inkscape-font-specification:'Noto Serif'" font-weight="400" font-size="16" font-family="Noto Serif" letter-spacing="0" word-spacing="0" fill="#cfa"/><path d="M14.097 6.136q.082 0 .152-.01.07-.008.141-.021v.201q-.029.014-.076.027-.047.014-.103.023-.054.01-.114.015-.061.007-.115.007-.175 0-.3-.038-.126-.036-.206-.119-.08-.083-.121-.22-.038-.136-.038-.333V4.135h-.35V3.95q.083 0 .182-.034.1-.033.177-.112.078-.085.125-.202.05-.118.085-.295h.21v.564h.602v.263h-.601V5.68q0 .235.094.345.096.11.256.11z" style="line-height:1.25;-inkscape-font-specification:'Noto Serif'" font-weight="400" font-size="16" font-family="Noto Serif" letter-spacing="0" word-spacing="0" fill="#ffe680"/><path d="M14.142 7.553l-.262.5-.559-.29.255-.5zm.276 3.19h-1.966v-.6h1.714q0-.407-.097-.62-.065-.149-.324-.428l.27-.563q.248.314.31.49.093.266.093.88z" style="line-height:1.25;-inkscape-font-specification:'PT Mono'" font-size="16" font-family="PT Mono" letter-spacing="0" word-spacing="0" fill="#fca"/><path d="M12.697 10.743H8.599q-.103.718-.496 1.076-.49.445-1.494.445-.69 0-1.055-.241-.4-.266-.4-.814 0-.297.072-.6.073-.304.197-.61.076-.187.262-.573l.138.062q-.242.496-.32.783-.077.286-.077.524 0 .428.304.652.307.22.872.22.663 0 1.183-.23.649-.287.649-.8 0-.346-.128-.656-.1-.245-.283-.47l.287-.706q.172.283.234.5.086.307.086.838h.062q.41 0 .763-.131.303-.114.638-.359.51-.355.61-.42.283-.18.507-.256.255-.086.562-.086.473 0 .707.273.218.251.218.707zm-.559-.865q0-.17-.214-.263-.21-.096-.493-.096-.248 0-.555.11-.218.08-.552.252l-.5.262h1.59q.33 0 .527-.065.197-.07.197-.2z" style="line-height:1.25;-inkscape-font-specification:'PT Mono'" font-size="16" font-family="PT Mono" letter-spacing="0" word-spacing="0" fill="#e0e0e0"/><g style="line-height:1.25;-inkscape-font-specification:'PT Mono'"><path style="-inkscape-font-specification:'Noto Sans'" d="M2.029 2.137L.632 1.523v-.148L2.029.68v.232L.91 1.438l1.118.469zm1.156.373q-.32 0-.492-.23h-.017l.005.06q.012.112.012.2v.653h-.26V.892h.214l.034.217h.012q.093-.13.214-.188.122-.058.281-.058.31 0 .48.216.173.214.173.605 0 .39-.172.608-.173.218-.484.218zm-.043-1.428q-.236 0-.342.133-.104.133-.107.418v.05q0 .324.107.468.107.144.348.144.2 0 .31-.163.114-.162.114-.451 0-.291-.113-.444-.112-.155-.317-.155zm1.01.825l1.117-.466L4.152.91V.679l1.397.696v.148l-1.397.614z" aria-label="&lt;p&gt;" font-size="2.964" font-family="Noto Sans" letter-spacing="0" word-spacing="0" fill="#e0e0e0" font-weight="400"/></g><g style="line-height:1.25;-inkscape-font-specification:'PT Mono'"><path style="-inkscape-font-specification:'Noto Sans'" d="M2.029 14.696l-1.397-.614v-.148l1.397-.696v.232l-1.118.526 1.118.47zm1.224-1.772l-.787 2.116H2.21l.788-2.116zm1.038 2.145q-.32 0-.492-.23H3.78l.006.06q.012.112.012.2v.653h-.26v-2.301h.214l.034.217H3.8q.092-.13.214-.188.122-.058.28-.058.31 0 .481.215.173.215.173.605t-.173.608q-.172.219-.483.219zm-.043-1.429q-.236 0-.342.133-.104.134-.107.419v.05q0 .323.107.468.107.143.347.143.2 0 .312-.162.112-.162.112-.451 0-.291-.112-.445-.112-.155-.317-.155zm1.01.825L6.375 14l-1.117-.53v-.231l1.397.696v.148l-1.397.614z" aria-label="&lt;/p&gt;" font-size="2.964" font-family="Noto Sans" letter-spacing="0" word-spacing="0" fill="#e0e0e0" font-weight="400"/></g></svg>