<svg xmlns="http://www.w3.org/2000/svg" height="16" width="16"><g style="line-height:1.25;-inkscape-font-specification:'PT Mono'"><path style="line-height:0;-inkscape-font-specification:'Noto Sans';text-align:center" d="M2.802 11.512H.267v-.509l.826-.187V5.198l-.826-.197v-.509h2.535v.51l-.826.196v5.618l.826.187zM7.177 5.17q-1.134 0-1.782.758-.648.759-.648 2.074 0 1.36.629 2.099.629.734 1.79.734.75 0 1.686-.278v.768q-.446.163-.86.22-.412.063-.95.063-1.55 0-2.391-.94-.836-.947-.836-2.675 0-1.085.399-1.902.403-.816 1.167-1.258.768-.441 1.805-.441 1.114 0 1.94.413l-.355.749q-.84-.385-1.594-.385zm8.556-.678v4.543q0 1.2-.725 1.887-.725.686-2.012.686-1.272 0-1.973-.691-.701-.696-.701-1.901V4.492h.888v4.552q0 .86.456 1.33.46.47 1.383.47.869 0 1.335-.465.47-.466.47-1.344V4.492z" aria-label="ICU" font-size="9.834" font-family="Noto Sans" letter-spacing="0" word-spacing="0" fill="#e0e0e0" font-weight="400" text-anchor="middle"/></g></svg>