<svg xmlns="http://www.w3.org/2000/svg" height="16" width="16"><path d="M3.381 5.21q0 .163.044.26.048.099.122.153.078.05.182.068.105.016.22.016h.159v.291H1.955v-.29h.159q.115 0 .216-.014.105-.017.183-.064.077-.048.121-.139.048-.094.048-.247V1.401h-.663q-.152 0-.257.048-.101.044-.169.121-.064.078-.098.183-.03.101-.044.216l-.037.298h-.358l.034-1.21h3.897l.034 1.21h-.359l-.034-.298q-.013-.115-.047-.216-.034-.105-.098-.183-.064-.077-.169-.121-.105-.048-.26-.048H3.38z" style="line-height:1.25;-inkscape-font-specification:'Noto Serif'" font-weight="400" font-size="16" font-family="Noto Serif" letter-spacing="0" word-spacing="0" fill="#e0e0e0"/><path d="M6.863 2.591q-.386 0-.595.314-.206.311-.244.913h1.592q0-.274-.04-.5-.04-.227-.129-.389-.088-.162-.233-.25-.142-.088-.351-.088zm.084 3.475q-.375 0-.676-.125-.297-.129-.503-.372-.207-.243-.318-.595-.108-.355-.108-.804 0-.97.398-1.46.4-.49 1.136-.49.335 0 .602.104.267.105.453.314.186.207.284.518.101.307.101.716v.318H6.011q.007.378.074.652.071.27.2.446.131.176.32.26.19.082.437.082.179 0 .331-.04.155-.041.28-.109.126-.068.22-.152.098-.088.16-.183.046.02.087.085.044.064.044.152 0 .105-.074.226-.075.119-.227.22-.152.102-.382.17-.226.067-.534.067z" style="line-height:1.25;-inkscape-font-specification:'Noto Serif'" font-weight="400" font-size="16" font-family="Noto Serif" letter-spacing="0" word-spacing="0" fill="#ff8080"/><path d="M11.32 2.78q0-.125-.107-.162-.105-.04-.264-.04h-.02v-.291h1.514v.29h-.06q-.102 0-.187.018-.08.016-.162.064-.078.047-.162.135-.085.088-.19.226l-.713.95 1.018 1.37q.152.202.287.286.139.081.267.081h.091v.291h-1.788v-.29h.034q.416 0 .416-.23 0-.038-.01-.075-.01-.04-.04-.091-.031-.054-.082-.128-.05-.075-.132-.183l-.463-.622-.483.676q-.03.04-.064.095-.034.054-.061.111-.027.058-.044.119-.017.057-.017.111 0 .118.098.17.098.046.331.046h.02v.291H8.698v-.29h.064q.125 0 .22-.02.095-.021.179-.072.085-.05.169-.135.085-.088.186-.216l.872-1.13-.872-1.189q-.152-.18-.298-.274-.141-.094-.297-.094H8.83v-.291h1.757v.29h-.02q-.118 0-.196.018-.078.013-.122.043-.044.027-.06.065-.017.037-.017.077 0 .071.04.142.044.068.122.176l.456.622.358-.517q.078-.118.126-.223.047-.105.047-.2z" style="line-height:1.25;-inkscape-font-specification:'Noto Serif'" font-weight="400" font-size="16" font-family="Noto Serif" letter-spacing="0" word-spacing="0" fill="#cfa"/><path d="M14.501 5.7q.125 0 .23-.013.105-.013.213-.034v.305q-.044.02-.115.04-.07.02-.155.034-.081.017-.173.024-.09.01-.172.01-.264 0-.453-.058-.19-.054-.31-.179-.123-.125-.183-.331-.058-.206-.058-.504V2.682h-.527v-.277q.125 0 .274-.05.152-.051.267-.17.118-.128.189-.304.074-.179.128-.446h.318v.852h.906v.395h-.906v2.333q0 .354.142.52.145.166.385.166z" style="line-height:1.25;-inkscape-font-specification:'Noto Serif'" font-weight="400" font-size="16" font-family="Noto Serif" letter-spacing="0" word-spacing="0" fill="#ffe680"/><path d="M14.57 7.838l-.396.754-.842-.437.385-.754zm.416 4.811h-2.965v-.905h2.585q0-.614-.145-.936-.1-.224-.49-.645l.406-.848q.375.473.469.739.14.4.14 1.326z" style="line-height:1.25;-inkscape-font-specification:'PT Mono'" font-size="16" font-family="PT Mono" letter-spacing="0" word-spacing="0" fill="#fca"/><path d="M12.39 12.65H6.21q-.155 1.081-.748 1.622-.74.671-2.253.671-1.04 0-1.592-.364-.603-.4-.603-1.227 0-.448.11-.905.109-.458.296-.921.114-.281.395-.864l.208.094q-.364.749-.484 1.18-.114.433-.114.791 0 .645.458.984.463.332 1.316.332.999 0 1.784-.348.978-.432.978-1.207 0-.52-.193-.988-.15-.37-.426-.708l.432-1.066q.26.427.353.754.13.463.13 1.264h.094q.62 0 1.15-.197.457-.172.962-.541.77-.536.92-.635.427-.27.765-.385.385-.13.848-.13.713 0 1.067.411.327.38.327 1.066zm-.842-1.306q0-.255-.323-.396-.317-.145-.744-.145-.374 0-.837.166-.328.12-.833.38l-.754.395h2.398q.5 0 .796-.099.297-.104.297-.301z" style="line-height:1.25;-inkscape-font-specification:'PT Mono'" font-size="16" font-family="PT Mono" letter-spacing="0" word-spacing="0" fill="#e0e0e0"/></svg>